solid OpenSCAD_Model
  facet normal -1 0 0
    outer loop
      vertex -8 10 0
      vertex -8 10 10
      vertex -8 30 0
    endloop
  endfacet
  facet normal -1 0 0
    outer loop
      vertex -8 30 0
      vertex -8 10 10
      vertex -8 30 10
    endloop
  endfacet
  facet normal -0.992709 -0.120536 0
    outer loop
      vertex -8 10 0
      vertex -7.76753 8.08547 0
      vertex -8 10 10
    endloop
  endfacet
  facet normal -0.992709 -0.120536 0
    outer loop
      vertex -8 10 10
      vertex -7.76753 8.08547 0
      vertex -7.76753 8.08547 10
    endloop
  endfacet
  facet normal 0 0 -1
    outer loop
      vertex -8 10 0
      vertex -8 30 0
      vertex -7.76753 8.08547 0
    endloop
  endfacet
  facet normal 0 0 -1
    outer loop
      vertex -7.76753 8.08547 0
      vertex -8 30 0
      vertex -7.76753 31.9145 0
    endloop
  endfacet
  facet normal 0 0 -1
    outer loop
      vertex -7.76753 8.08547 0
      vertex -7.76753 31.9145 0
      vertex -7.08365 33.7178 0
    endloop
  endfacet
  facet normal 0 0 -1
    outer loop
      vertex -7.76753 8.08547 0
      vertex -7.08365 33.7178 0
      vertex -5.98809 35.305 0
    endloop
  endfacet
  facet normal 0 0 -1
    outer loop
      vertex -7.76753 8.08547 0
      vertex -5.98809 35.305 0
      vertex -4.54452 36.5839 0
    endloop
  endfacet
  facet normal 0 0 -1
    outer loop
      vertex -4.40166 30.9356 0
      vertex -4.54452 36.5839 0
      vertex -2.83684 37.4801 0
    endloop
  endfacet
  facet normal 0 0 -1
    outer loop
      vertex -2.25 33.8971 0
      vertex -2.83684 37.4801 0
      vertex -0.964293 37.9417 0
    endloop
  endfacet
  facet normal 0 0 -1
    outer loop
      vertex -0.470378 34.4753 0
      vertex -0.964293 37.9417 0
      vertex 0.964293 37.9417 0
    endloop
  endfacet
  facet normal 0 0 -1
    outer loop
      vertex 0 34.5 0
      vertex 0.964293 37.9417 0
      vertex 2.83684 37.4801 0
    endloop
  endfacet
  facet normal 0 0 -1
    outer loop
      vertex -0.470378 34.4753 0
      vertex 0.964293 37.9417 0
      vertex 0 34.5 0
    endloop
  endfacet
  facet normal 0 0 -1
    outer loop
      vertex -0.470378 34.4753 0
      vertex 0 34.5 0
      vertex 0 34.4259 0
    endloop
  endfacet
  facet normal 0 0 -1
    outer loop
      vertex -2.25 33.8971 0
      vertex -0.964293 37.9417 0
      vertex -0.470378 34.4753 0
    endloop
  endfacet
  facet normal 0 0 -1
    outer loop
      vertex -3.64058 32.645 0
      vertex -2.83684 37.4801 0
      vertex -2.25 33.8971 0
    endloop
  endfacet
  facet normal 0 0 -1
    outer loop
      vertex -4.40166 30.9356 0
      vertex -2.83684 37.4801 0
      vertex -3.64058 32.645 0
    endloop
  endfacet
  facet normal 0 0 -1
    outer loop
      vertex -7.76753 8.08547 0
      vertex -4.54452 36.5839 0
      vertex -4.40166 30.9356 0
    endloop
  endfacet
  facet normal 0 0 -1
    outer loop
      vertex -3.64058 27.355 0
      vertex -7.76753 8.08547 0
      vertex -4.40166 29.0644 0
    endloop
  endfacet
  facet normal 0 0 -1
    outer loop
      vertex -7.76753 8.08547 0
      vertex -4.40166 30.9356 0
      vertex -4.40166 29.0644 0
    endloop
  endfacet
  facet normal 0 0 -1
    outer loop
      vertex -2.25 26.1029 0
      vertex -7.76753 8.08547 0
      vertex -3.64058 27.355 0
    endloop
  endfacet
  facet normal 0 0 -1
    outer loop
      vertex -3.64058 12.645 0
      vertex -7.76753 8.08547 0
      vertex 0 25.5 0
    endloop
  endfacet
  facet normal 0 0 -1
    outer loop
      vertex 8 25.5 0
      vertex -3.64058 12.645 0
      vertex 0 25.5 0
    endloop
  endfacet
  facet normal 0 0 -1
    outer loop
      vertex -7.76753 8.08547 0
      vertex 0 25.5741 0
      vertex 0 25.5 0
    endloop
  endfacet
  facet normal 0 0 -1
    outer loop
      vertex -0.470378 14.4753 0
      vertex 0 14.5 0
      vertex 0 14.4259 0
    endloop
  endfacet
  facet normal 0 0 -1
    outer loop
      vertex 0 14.5 0
      vertex 8 25.5 0
      vertex 8 14.5 0
    endloop
  endfacet
  facet normal 0 0 -1
    outer loop
      vertex -0.470378 14.4753 0
      vertex 8 25.5 0
      vertex 0 14.5 0
    endloop
  endfacet
  facet normal 0 0 -1
    outer loop
      vertex -2.25 13.8971 0
      vertex 8 25.5 0
      vertex -0.470378 14.4753 0
    endloop
  endfacet
  facet normal 0 0 -1
    outer loop
      vertex -3.64058 12.645 0
      vertex 8 25.5 0
      vertex -2.25 13.8971 0
    endloop
  endfacet
  facet normal 0 0 -1
    outer loop
      vertex -4.40166 10.9356 0
      vertex -7.76753 8.08547 0
      vertex -3.64058 12.645 0
    endloop
  endfacet
  facet normal 0 0 -1
    outer loop
      vertex -4.40166 9.0644 0
      vertex -7.76753 8.08547 0
      vertex -4.40166 10.9356 0
    endloop
  endfacet
  facet normal 0 0 -1
    outer loop
      vertex -7.76753 8.08547 0
      vertex -4.40166 9.0644 0
      vertex -3.64058 7.35497 0
    endloop
  endfacet
  facet normal 0 0 -1
    outer loop
      vertex -3.64058 7.35497 0
      vertex -2.25 6.10289 0
      vertex -7.76753 8.08547 0
    endloop
  endfacet
  facet normal 0 0 -1
    outer loop
      vertex -2.25 6.10289 0
      vertex 4.54452 3.41613 0
      vertex -7.76753 8.08547 0
    endloop
  endfacet
  facet normal 0 0 -1
    outer loop
      vertex -0.470378 5.52465 0
      vertex 0 5.57409 0
      vertex 0 5.5 0
    endloop
  endfacet
  facet normal 0 0 -1
    outer loop
      vertex 0 5.5 0
      vertex 6.54372 5.5 0
      vertex 5.98809 4.69502 0
    endloop
  endfacet
  facet normal 0 0 -1
    outer loop
      vertex 0 5.5 0
      vertex 5.98809 4.69502 0
      vertex -0.470378 5.52465 0
    endloop
  endfacet
  facet normal 0 0 -1
    outer loop
      vertex -0.470378 5.52465 0
      vertex 5.98809 4.69502 0
      vertex 4.54452 3.41613 0
    endloop
  endfacet
  facet normal 0 0 -1
    outer loop
      vertex -0.470378 5.52465 0
      vertex 4.54452 3.41613 0
      vertex -2.25 6.10289 0
    endloop
  endfacet
  facet normal 0 0 -1
    outer loop
      vertex -7.76753 8.08547 0
      vertex 4.54452 3.41613 0
      vertex 2.83684 2.51987 0
    endloop
  endfacet
  facet normal 0 0 -1
    outer loop
      vertex -7.76753 8.08547 0
      vertex 2.83684 2.51987 0
      vertex 0.964293 2.05833 0
    endloop
  endfacet
  facet normal 0 0 -1
    outer loop
      vertex -7.76753 8.08547 0
      vertex 0.964293 2.05833 0
      vertex -0.964293 2.05833 0
    endloop
  endfacet
  facet normal 0 0 -1
    outer loop
      vertex -7.76753 8.08547 0
      vertex -0.964293 2.05833 0
      vertex -2.83684 2.51987 0
    endloop
  endfacet
  facet normal 0 0 -1
    outer loop
      vertex -7.76753 8.08547 0
      vertex -2.83684 2.51987 0
      vertex -4.54452 3.41613 0
    endloop
  endfacet
  facet normal 0 0 -1
    outer loop
      vertex -7.76753 8.08547 0
      vertex -4.54452 3.41613 0
      vertex -5.98809 4.69502 0
    endloop
  endfacet
  facet normal 0 0 -1
    outer loop
      vertex -7.76753 8.08547 0
      vertex -5.98809 4.69502 0
      vertex -7.08365 6.28221 0
    endloop
  endfacet
  facet normal 0 0 -1
    outer loop
      vertex 0 34.5 0
      vertex 2.83684 37.4801 0
      vertex 4.54452 36.5839 0
    endloop
  endfacet
  facet normal 0 0 -1
    outer loop
      vertex 0 34.5 0
      vertex 4.54452 36.5839 0
      vertex 5.98809 35.305 0
    endloop
  endfacet
  facet normal 0 0 -1
    outer loop
      vertex 0 34.5 0
      vertex 5.98809 35.305 0
      vertex 6.54372 34.5 0
    endloop
  endfacet
  facet normal 0 0 -1
    outer loop
      vertex 0 25.5741 0
      vertex -7.76753 8.08547 0
      vertex -0.470378 25.5247 0
    endloop
  endfacet
  facet normal 0 0 -1
    outer loop
      vertex -0.470378 25.5247 0
      vertex -7.76753 8.08547 0
      vertex -2.25 26.1029 0
    endloop
  endfacet
  facet normal -0.992709 0.120536 0
    outer loop
      vertex -8 30 0
      vertex -8 30 10
      vertex -7.76753 31.9145 0
    endloop
  endfacet
  facet normal -0.992709 0.120536 0
    outer loop
      vertex -7.76753 31.9145 0
      vertex -8 30 10
      vertex -7.76753 31.9145 10
    endloop
  endfacet
  facet normal 0 0 1
    outer loop
      vertex -8 30 10
      vertex -8 10 10
      vertex -7.76753 8.08547 10
    endloop
  endfacet
  facet normal 0 0 1
    outer loop
      vertex -5.98809 4.69502 10
      vertex -8 30 10
      vertex -7.08365 6.28221 10
    endloop
  endfacet
  facet normal 0 0 1
    outer loop
      vertex -7.08365 6.28221 10
      vertex -8 30 10
      vertex -7.76753 8.08547 10
    endloop
  endfacet
  facet normal 0 0 1
    outer loop
      vertex -4.54452 3.41613 10
      vertex -8 30 10
      vertex -5.98809 4.69502 10
    endloop
  endfacet
  facet normal 0 0 1
    outer loop
      vertex -4.40166 9.0644 10
      vertex -8 30 10
      vertex -4.54452 3.41613 10
    endloop
  endfacet
  facet normal 0 0 1
    outer loop
      vertex -3.64058 7.35497 10
      vertex -4.40166 9.0644 10
      vertex -2.83684 2.51987 10
    endloop
  endfacet
  facet normal 0 0 1
    outer loop
      vertex -3.64058 27.355 10
      vertex -4.40166 29.0644 10
      vertex -8 30 10
    endloop
  endfacet
  facet normal 0 0 1
    outer loop
      vertex 2.83684 2.51987 10
      vertex 0 5.5 10
      vertex 0.964293 2.05833 10
    endloop
  endfacet
  facet normal 0 0 1
    outer loop
      vertex -0.470378 5.52465 10
      vertex -2.25 6.10289 10
      vertex -0.964293 2.05833 10
    endloop
  endfacet
  facet normal 0 0 1
    outer loop
      vertex 0 14.5 10
      vertex 8 14.5 10
      vertex -8 30 10
    endloop
  endfacet
  facet normal 0 0 1
    outer loop
      vertex 0.964293 2.05833 10
      vertex -0.470378 5.52465 10
      vertex -0.964293 2.05833 10
    endloop
  endfacet
  facet normal 0 0 1
    outer loop
      vertex -0.964293 2.05833 10
      vertex -2.25 6.10289 10
      vertex -2.83684 2.51987 10
    endloop
  endfacet
  facet normal 0 0 1
    outer loop
      vertex -2.25 6.10289 10
      vertex -3.64058 7.35497 10
      vertex -2.83684 2.51987 10
    endloop
  endfacet
  facet normal 0 0 1
    outer loop
      vertex -2.83684 2.51987 10
      vertex -4.40166 9.0644 10
      vertex -4.54452 3.41613 10
    endloop
  endfacet
  facet normal 0 0 1
    outer loop
      vertex -4.40166 10.9356 10
      vertex -3.64058 12.645 10
      vertex -8 30 10
    endloop
  endfacet
  facet normal 0 0 1
    outer loop
      vertex -3.64058 12.645 10
      vertex -2.25 13.8971 10
      vertex -8 30 10
    endloop
  endfacet
  facet normal 0 0 1
    outer loop
      vertex -4.40166 9.0644 10
      vertex -4.40166 10.9356 10
      vertex -8 30 10
    endloop
  endfacet
  facet normal 0 0 1
    outer loop
      vertex 0 5.5 10
      vertex -0.470378 5.52465 10
      vertex 0.964293 2.05833 10
    endloop
  endfacet
  facet normal 0 0 1
    outer loop
      vertex 0 5.57409 10
      vertex -0.470378 5.52465 10
      vertex 0 5.5 10
    endloop
  endfacet
  facet normal 0 0 1
    outer loop
      vertex 0 14.4259 10
      vertex -8 30 10
      vertex -0.470378 14.4753 10
    endloop
  endfacet
  facet normal 0 0 1
    outer loop
      vertex 0 14.5 10
      vertex -8 30 10
      vertex 0 14.4259 10
    endloop
  endfacet
  facet normal 0 0 1
    outer loop
      vertex -2.25 26.1029 10
      vertex -8 30 10
      vertex 8 14.5 10
    endloop
  endfacet
  facet normal 0 0 1
    outer loop
      vertex 8 25.5 10
      vertex 0 25.5 10
      vertex 8 14.5 10
    endloop
  endfacet
  facet normal 0 0 1
    outer loop
      vertex 0 25.5 10
      vertex -0.470378 25.5247 10
      vertex 8 14.5 10
    endloop
  endfacet
  facet normal 0 0 1
    outer loop
      vertex -0.470378 25.5247 10
      vertex -2.25 26.1029 10
      vertex 8 14.5 10
    endloop
  endfacet
  facet normal 0 0 1
    outer loop
      vertex -3.64058 27.355 10
      vertex -8 30 10
      vertex -2.25 26.1029 10
    endloop
  endfacet
  facet normal 0 0 1
    outer loop
      vertex -4.40166 30.9356 10
      vertex -8 30 10
      vertex -4.40166 29.0644 10
    endloop
  endfacet
  facet normal 0 0 1
    outer loop
      vertex -3.64058 32.645 10
      vertex -8 30 10
      vertex -4.40166 30.9356 10
    endloop
  endfacet
  facet normal 0 0 1
    outer loop
      vertex -2.25 33.8971 10
      vertex -8 30 10
      vertex -3.64058 32.645 10
    endloop
  endfacet
  facet normal 0 0 1
    outer loop
      vertex 2.83684 37.4801 10
      vertex -8 30 10
      vertex -2.25 33.8971 10
    endloop
  endfacet
  facet normal 0 0 1
    outer loop
      vertex 4.54452 36.5839 10
      vertex -2.25 33.8971 10
      vertex -0.470378 34.4753 10
    endloop
  endfacet
  facet normal 0 0 1
    outer loop
      vertex 0 34.5 10
      vertex -0.470378 34.4753 10
      vertex 0 34.4259 10
    endloop
  endfacet
  facet normal 0 0 1
    outer loop
      vertex 5.98809 35.305 10
      vertex -0.470378 34.4753 10
      vertex 0 34.5 10
    endloop
  endfacet
  facet normal 0 0 1
    outer loop
      vertex 5.98809 35.305 10
      vertex 0 34.5 10
      vertex 6.54372 34.5 10
    endloop
  endfacet
  facet normal 0 0 1
    outer loop
      vertex 4.54452 36.5839 10
      vertex -0.470378 34.4753 10
      vertex 5.98809 35.305 10
    endloop
  endfacet
  facet normal 0 0 1
    outer loop
      vertex 2.83684 37.4801 10
      vertex -2.25 33.8971 10
      vertex 4.54452 36.5839 10
    endloop
  endfacet
  facet normal 0 0 1
    outer loop
      vertex 0.964293 37.9417 10
      vertex -8 30 10
      vertex 2.83684 37.4801 10
    endloop
  endfacet
  facet normal 0 0 1
    outer loop
      vertex -0.964293 37.9417 10
      vertex -8 30 10
      vertex 0.964293 37.9417 10
    endloop
  endfacet
  facet normal 0 0 1
    outer loop
      vertex -2.83684 37.4801 10
      vertex -8 30 10
      vertex -0.964293 37.9417 10
    endloop
  endfacet
  facet normal 0 0 1
    outer loop
      vertex -4.54452 36.5839 10
      vertex -8 30 10
      vertex -2.83684 37.4801 10
    endloop
  endfacet
  facet normal 0 0 1
    outer loop
      vertex -5.98809 35.305 10
      vertex -8 30 10
      vertex -4.54452 36.5839 10
    endloop
  endfacet
  facet normal 0 0 1
    outer loop
      vertex -7.08365 33.7178 10
      vertex -8 30 10
      vertex -5.98809 35.305 10
    endloop
  endfacet
  facet normal 0 0 1
    outer loop
      vertex -7.76753 31.9145 10
      vertex -8 30 10
      vertex -7.08365 33.7178 10
    endloop
  endfacet
  facet normal 0 0 1
    outer loop
      vertex -2.25 13.8971 10
      vertex -0.470378 14.4753 10
      vertex -8 30 10
    endloop
  endfacet
  facet normal 0 0 1
    outer loop
      vertex 0 25.5741 10
      vertex -0.470378 25.5247 10
      vertex 0 25.5 10
    endloop
  endfacet
  facet normal 0 0 1
    outer loop
      vertex 6.54372 5.5 10
      vertex 4.54452 3.41613 10
      vertex 5.98809 4.69502 10
    endloop
  endfacet
  facet normal 0 0 1
    outer loop
      vertex 6.54372 5.5 10
      vertex 2.83684 2.51987 10
      vertex 4.54452 3.41613 10
    endloop
  endfacet
  facet normal 0 0 1
    outer loop
      vertex 6.54372 5.5 10
      vertex 0 5.5 10
      vertex 2.83684 2.51987 10
    endloop
  endfacet
  facet normal -0.935016 -0.354605 0
    outer loop
      vertex -7.76753 8.08547 0
      vertex -7.08365 6.28221 0
      vertex -7.76753 8.08547 10
    endloop
  endfacet
  facet normal -0.935016 -0.354605 0
    outer loop
      vertex -7.76753 8.08547 10
      vertex -7.08365 6.28221 0
      vertex -7.08365 6.28221 10
    endloop
  endfacet
  facet normal -0.822984 -0.568065 0
    outer loop
      vertex -7.08365 6.28221 0
      vertex -5.98809 4.69502 0
      vertex -7.08365 6.28221 10
    endloop
  endfacet
  facet normal -0.822984 -0.568065 0
    outer loop
      vertex -7.08365 6.28221 10
      vertex -5.98809 4.69502 0
      vertex -5.98809 4.69502 10
    endloop
  endfacet
  facet normal -0.663123 -0.748511 0
    outer loop
      vertex -5.98809 4.69502 10
      vertex -5.98809 4.69502 0
      vertex -4.54452 3.41613 0
    endloop
  endfacet
  facet normal -0.663123 -0.748511 0
    outer loop
      vertex -4.54452 3.41613 10
      vertex -5.98809 4.69502 10
      vertex -4.54452 3.41613 0
    endloop
  endfacet
  facet normal -0.464723 -0.885456 0
    outer loop
      vertex -4.54452 3.41613 10
      vertex -4.54452 3.41613 0
      vertex -2.83684 2.51987 0
    endloop
  endfacet
  facet normal -0.464723 -0.885456 0
    outer loop
      vertex -2.83684 2.51987 10
      vertex -4.54452 3.41613 10
      vertex -2.83684 2.51987 0
    endloop
  endfacet
  facet normal -0.239316 -0.970942 0
    outer loop
      vertex -2.83684 2.51987 10
      vertex -2.83684 2.51987 0
      vertex -0.964293 2.05833 0
    endloop
  endfacet
  facet normal -0.239316 -0.970942 0
    outer loop
      vertex -0.964293 2.05833 10
      vertex -2.83684 2.51987 10
      vertex -0.964293 2.05833 0
    endloop
  endfacet
  facet normal 0 -1 0
    outer loop
      vertex -0.964293 2.05833 10
      vertex -0.964293 2.05833 0
      vertex 0.964293 2.05833 0
    endloop
  endfacet
  facet normal 0 -1 0
    outer loop
      vertex 0.964293 2.05833 10
      vertex -0.964293 2.05833 10
      vertex 0.964293 2.05833 0
    endloop
  endfacet
  facet normal 0.239316 -0.970942 0
    outer loop
      vertex 0.964293 2.05833 10
      vertex 0.964293 2.05833 0
      vertex 2.83684 2.51987 0
    endloop
  endfacet
  facet normal 0.239316 -0.970942 0
    outer loop
      vertex 2.83684 2.51987 10
      vertex 0.964293 2.05833 10
      vertex 2.83684 2.51987 0
    endloop
  endfacet
  facet normal 0.464723 -0.885456 0
    outer loop
      vertex 2.83684 2.51987 10
      vertex 2.83684 2.51987 0
      vertex 4.54452 3.41613 0
    endloop
  endfacet
  facet normal 0.464723 -0.885456 0
    outer loop
      vertex 4.54452 3.41613 10
      vertex 2.83684 2.51987 10
      vertex 4.54452 3.41613 0
    endloop
  endfacet
  facet normal 0.663123 -0.748511 0
    outer loop
      vertex 4.54452 3.41613 10
      vertex 4.54452 3.41613 0
      vertex 5.98809 4.69502 0
    endloop
  endfacet
  facet normal 0.663123 -0.748511 0
    outer loop
      vertex 5.98809 4.69502 10
      vertex 4.54452 3.41613 10
      vertex 5.98809 4.69502 0
    endloop
  endfacet
  facet normal 0.822984 -0.568065 0
    outer loop
      vertex 5.98809 4.69502 10
      vertex 5.98809 4.69502 0
      vertex 6.54372 5.5 0
    endloop
  endfacet
  facet normal 0.822984 -0.568065 0
    outer loop
      vertex 6.54372 5.5 10
      vertex 5.98809 4.69502 10
      vertex 6.54372 5.5 0
    endloop
  endfacet
  facet normal 0 1 0
    outer loop
      vertex 6.54372 5.5 10
      vertex 6.54372 5.5 0
      vertex 0 5.5 10
    endloop
  endfacet
  facet normal 0 1 0
    outer loop
      vertex 0 5.5 10
      vertex 6.54372 5.5 0
      vertex 0 5.5 0
    endloop
  endfacet
  facet normal 1 0 0
    outer loop
      vertex 0 5.57409 0
      vertex 0 5.57409 10
      vertex 0 5.5 10
    endloop
  endfacet
  facet normal 1 0 0
    outer loop
      vertex 0 5.5 0
      vertex 0 5.57409 0
      vertex 0 5.5 10
    endloop
  endfacet
  facet normal -0.104529 0.994522 0
    outer loop
      vertex 0 5.57409 10
      vertex 0 5.57409 0
      vertex -0.470378 5.52465 10
    endloop
  endfacet
  facet normal -0.104529 0.994522 0
    outer loop
      vertex -0.470378 5.52465 10
      vertex 0 5.57409 0
      vertex -0.470378 5.52465 0
    endloop
  endfacet
  facet normal 0.309017 0.951056 0
    outer loop
      vertex -0.470378 5.52465 10
      vertex -0.470378 5.52465 0
      vertex -2.25 6.10289 10
    endloop
  endfacet
  facet normal 0.309017 0.951056 0
    outer loop
      vertex -2.25 6.10289 10
      vertex -0.470378 5.52465 0
      vertex -2.25 6.10289 0
    endloop
  endfacet
  facet normal 0.669131 0.743145 0
    outer loop
      vertex -2.25 6.10289 10
      vertex -2.25 6.10289 0
      vertex -3.64058 7.35497 10
    endloop
  endfacet
  facet normal 0.669131 0.743145 0
    outer loop
      vertex -3.64058 7.35497 10
      vertex -2.25 6.10289 0
      vertex -3.64058 7.35497 0
    endloop
  endfacet
  facet normal 0.913545 0.406737 0
    outer loop
      vertex -4.40166 9.0644 10
      vertex -3.64058 7.35497 10
      vertex -3.64058 7.35497 0
    endloop
  endfacet
  facet normal 0.913545 0.406737 0
    outer loop
      vertex -4.40166 9.0644 0
      vertex -4.40166 9.0644 10
      vertex -3.64058 7.35497 0
    endloop
  endfacet
  facet normal 1 0 0
    outer loop
      vertex -4.40166 10.9356 0
      vertex -4.40166 10.9356 10
      vertex -4.40166 9.0644 10
    endloop
  endfacet
  facet normal 1 0 0
    outer loop
      vertex -4.40166 9.0644 0
      vertex -4.40166 10.9356 0
      vertex -4.40166 9.0644 10
    endloop
  endfacet
  facet normal 0.913545 -0.406737 0
    outer loop
      vertex -3.64058 12.645 0
      vertex -3.64058 12.645 10
      vertex -4.40166 10.9356 10
    endloop
  endfacet
  facet normal 0.913545 -0.406737 0
    outer loop
      vertex -4.40166 10.9356 0
      vertex -3.64058 12.645 0
      vertex -4.40166 10.9356 10
    endloop
  endfacet
  facet normal 0.669131 -0.743145 0
    outer loop
      vertex -2.25 13.8971 0
      vertex -2.25 13.8971 10
      vertex -3.64058 12.645 10
    endloop
  endfacet
  facet normal 0.669131 -0.743145 0
    outer loop
      vertex -3.64058 12.645 0
      vertex -2.25 13.8971 0
      vertex -3.64058 12.645 10
    endloop
  endfacet
  facet normal 0.309017 -0.951056 0
    outer loop
      vertex -0.470378 14.4753 0
      vertex -0.470378 14.4753 10
      vertex -2.25 13.8971 10
    endloop
  endfacet
  facet normal 0.309017 -0.951056 0
    outer loop
      vertex -2.25 13.8971 0
      vertex -0.470378 14.4753 0
      vertex -2.25 13.8971 10
    endloop
  endfacet
  facet normal -0.104529 -0.994522 0
    outer loop
      vertex 0 14.4259 0
      vertex 0 14.4259 10
      vertex -0.470378 14.4753 10
    endloop
  endfacet
  facet normal -0.104529 -0.994522 0
    outer loop
      vertex -0.470378 14.4753 0
      vertex 0 14.4259 0
      vertex -0.470378 14.4753 10
    endloop
  endfacet
  facet normal 1 0 0
    outer loop
      vertex 0 14.5 0
      vertex 0 14.5 10
      vertex 0 14.4259 10
    endloop
  endfacet
  facet normal 1 0 0
    outer loop
      vertex 0 14.4259 0
      vertex 0 14.5 0
      vertex 0 14.4259 10
    endloop
  endfacet
  facet normal 0 -1 0
    outer loop
      vertex 8 14.5 0
      vertex 8 14.5 10
      vertex 0 14.5 10
    endloop
  endfacet
  facet normal 0 -1 0
    outer loop
      vertex 0 14.5 0
      vertex 8 14.5 0
      vertex 0 14.5 10
    endloop
  endfacet
  facet normal 1 0 0
    outer loop
      vertex 8 14.5 10
      vertex 8 14.5 0
      vertex 8 25.5 0
    endloop
  endfacet
  facet normal 1 0 0
    outer loop
      vertex 8 25.5 10
      vertex 8 14.5 10
      vertex 8 25.5 0
    endloop
  endfacet
  facet normal 0 1 0
    outer loop
      vertex 8 25.5 10
      vertex 8 25.5 0
      vertex 0 25.5 10
    endloop
  endfacet
  facet normal 0 1 0
    outer loop
      vertex 0 25.5 10
      vertex 8 25.5 0
      vertex 0 25.5 0
    endloop
  endfacet
  facet normal 1 0 0
    outer loop
      vertex 0 25.5741 0
      vertex 0 25.5741 10
      vertex 0 25.5 10
    endloop
  endfacet
  facet normal 1 0 0
    outer loop
      vertex 0 25.5 0
      vertex 0 25.5741 0
      vertex 0 25.5 10
    endloop
  endfacet
  facet normal -0.104529 0.994522 0
    outer loop
      vertex 0 25.5741 10
      vertex 0 25.5741 0
      vertex -0.470378 25.5247 10
    endloop
  endfacet
  facet normal -0.104529 0.994522 0
    outer loop
      vertex -0.470378 25.5247 10
      vertex 0 25.5741 0
      vertex -0.470378 25.5247 0
    endloop
  endfacet
  facet normal 0.309017 0.951056 0
    outer loop
      vertex -0.470378 25.5247 10
      vertex -0.470378 25.5247 0
      vertex -2.25 26.1029 10
    endloop
  endfacet
  facet normal 0.309017 0.951056 0
    outer loop
      vertex -2.25 26.1029 10
      vertex -0.470378 25.5247 0
      vertex -2.25 26.1029 0
    endloop
  endfacet
  facet normal 0.669131 0.743145 0
    outer loop
      vertex -2.25 26.1029 10
      vertex -2.25 26.1029 0
      vertex -3.64058 27.355 10
    endloop
  endfacet
  facet normal 0.669131 0.743145 0
    outer loop
      vertex -3.64058 27.355 10
      vertex -2.25 26.1029 0
      vertex -3.64058 27.355 0
    endloop
  endfacet
  facet normal 0.913545 0.406737 0
    outer loop
      vertex -4.40166 29.0644 10
      vertex -3.64058 27.355 10
      vertex -3.64058 27.355 0
    endloop
  endfacet
  facet normal 0.913545 0.406737 0
    outer loop
      vertex -4.40166 29.0644 0
      vertex -4.40166 29.0644 10
      vertex -3.64058 27.355 0
    endloop
  endfacet
  facet normal 1 0 0
    outer loop
      vertex -4.40166 30.9356 0
      vertex -4.40166 30.9356 10
      vertex -4.40166 29.0644 10
    endloop
  endfacet
  facet normal 1 0 0
    outer loop
      vertex -4.40166 29.0644 0
      vertex -4.40166 30.9356 0
      vertex -4.40166 29.0644 10
    endloop
  endfacet
  facet normal 0.913545 -0.406737 0
    outer loop
      vertex -3.64058 32.645 0
      vertex -3.64058 32.645 10
      vertex -4.40166 30.9356 10
    endloop
  endfacet
  facet normal 0.913545 -0.406737 0
    outer loop
      vertex -4.40166 30.9356 0
      vertex -3.64058 32.645 0
      vertex -4.40166 30.9356 10
    endloop
  endfacet
  facet normal 0.669131 -0.743145 0
    outer loop
      vertex -2.25 33.8971 0
      vertex -2.25 33.8971 10
      vertex -3.64058 32.645 10
    endloop
  endfacet
  facet normal 0.669131 -0.743145 0
    outer loop
      vertex -3.64058 32.645 0
      vertex -2.25 33.8971 0
      vertex -3.64058 32.645 10
    endloop
  endfacet
  facet normal 0.309017 -0.951056 0
    outer loop
      vertex -0.470378 34.4753 0
      vertex -0.470378 34.4753 10
      vertex -2.25 33.8971 10
    endloop
  endfacet
  facet normal 0.309017 -0.951056 0
    outer loop
      vertex -2.25 33.8971 0
      vertex -0.470378 34.4753 0
      vertex -2.25 33.8971 10
    endloop
  endfacet
  facet normal -0.104529 -0.994522 0
    outer loop
      vertex 0 34.4259 0
      vertex 0 34.4259 10
      vertex -0.470378 34.4753 10
    endloop
  endfacet
  facet normal -0.104529 -0.994522 0
    outer loop
      vertex -0.470378 34.4753 0
      vertex 0 34.4259 0
      vertex -0.470378 34.4753 10
    endloop
  endfacet
  facet normal 1 0 0
    outer loop
      vertex 0 34.5 0
      vertex 0 34.5 10
      vertex 0 34.4259 10
    endloop
  endfacet
  facet normal 1 0 0
    outer loop
      vertex 0 34.4259 0
      vertex 0 34.5 0
      vertex 0 34.4259 10
    endloop
  endfacet
  facet normal 0 -1 0
    outer loop
      vertex 6.54372 34.5 0
      vertex 6.54372 34.5 10
      vertex 0 34.5 10
    endloop
  endfacet
  facet normal 0 -1 0
    outer loop
      vertex 0 34.5 0
      vertex 6.54372 34.5 0
      vertex 0 34.5 10
    endloop
  endfacet
  facet normal 0.822984 0.568065 0
    outer loop
      vertex 6.54372 34.5 0
      vertex 5.98809 35.305 0
      vertex 5.98809 35.305 10
    endloop
  endfacet
  facet normal 0.822984 0.568065 0
    outer loop
      vertex 6.54372 34.5 10
      vertex 6.54372 34.5 0
      vertex 5.98809 35.305 10
    endloop
  endfacet
  facet normal 0.663123 0.748511 0
    outer loop
      vertex 4.54452 36.5839 0
      vertex 4.54452 36.5839 10
      vertex 5.98809 35.305 0
    endloop
  endfacet
  facet normal 0.663123 0.748511 0
    outer loop
      vertex 5.98809 35.305 0
      vertex 4.54452 36.5839 10
      vertex 5.98809 35.305 10
    endloop
  endfacet
  facet normal 0.464723 0.885456 0
    outer loop
      vertex 2.83684 37.4801 0
      vertex 2.83684 37.4801 10
      vertex 4.54452 36.5839 0
    endloop
  endfacet
  facet normal 0.464723 0.885456 0
    outer loop
      vertex 4.54452 36.5839 0
      vertex 2.83684 37.4801 10
      vertex 4.54452 36.5839 10
    endloop
  endfacet
  facet normal 0.239316 0.970942 0
    outer loop
      vertex 0.964293 37.9417 0
      vertex 0.964293 37.9417 10
      vertex 2.83684 37.4801 0
    endloop
  endfacet
  facet normal 0.239316 0.970942 0
    outer loop
      vertex 2.83684 37.4801 0
      vertex 0.964293 37.9417 10
      vertex 2.83684 37.4801 10
    endloop
  endfacet
  facet normal 0 1 0
    outer loop
      vertex -0.964293 37.9417 0
      vertex -0.964293 37.9417 10
      vertex 0.964293 37.9417 0
    endloop
  endfacet
  facet normal 0 1 0
    outer loop
      vertex 0.964293 37.9417 0
      vertex -0.964293 37.9417 10
      vertex 0.964293 37.9417 10
    endloop
  endfacet
  facet normal -0.239316 0.970942 0
    outer loop
      vertex -2.83684 37.4801 0
      vertex -2.83684 37.4801 10
      vertex -0.964293 37.9417 0
    endloop
  endfacet
  facet normal -0.239316 0.970942 0
    outer loop
      vertex -0.964293 37.9417 0
      vertex -2.83684 37.4801 10
      vertex -0.964293 37.9417 10
    endloop
  endfacet
  facet normal -0.464723 0.885456 0
    outer loop
      vertex -4.54452 36.5839 0
      vertex -4.54452 36.5839 10
      vertex -2.83684 37.4801 0
    endloop
  endfacet
  facet normal -0.464723 0.885456 0
    outer loop
      vertex -2.83684 37.4801 0
      vertex -4.54452 36.5839 10
      vertex -2.83684 37.4801 10
    endloop
  endfacet
  facet normal -0.663123 0.748511 0
    outer loop
      vertex -5.98809 35.305 0
      vertex -5.98809 35.305 10
      vertex -4.54452 36.5839 0
    endloop
  endfacet
  facet normal -0.663123 0.748511 0
    outer loop
      vertex -4.54452 36.5839 0
      vertex -5.98809 35.305 10
      vertex -4.54452 36.5839 10
    endloop
  endfacet
  facet normal -0.822984 0.568065 0
    outer loop
      vertex -7.08365 33.7178 0
      vertex -7.08365 33.7178 10
      vertex -5.98809 35.305 0
    endloop
  endfacet
  facet normal -0.822984 0.568065 0
    outer loop
      vertex -5.98809 35.305 0
      vertex -7.08365 33.7178 10
      vertex -5.98809 35.305 10
    endloop
  endfacet
  facet normal -0.935016 0.354605 0
    outer loop
      vertex -7.76753 31.9145 0
      vertex -7.76753 31.9145 10
      vertex -7.08365 33.7178 0
    endloop
  endfacet
  facet normal -0.935016 0.354605 0
    outer loop
      vertex -7.08365 33.7178 0
      vertex -7.76753 31.9145 10
      vertex -7.08365 33.7178 10
    endloop
  endfacet
endsolid OpenSCAD_Model
